<!--?xml version="1.0" encoding="utf-8"?-->
<!-- Generator: Adobe Illustrator 18.1.1, SVG Export Plug-In . SVG Version: 6.00 Build 0)  -->

<svg version="1.1" id="_x32_" xmlns="http://www.w3.org/2000/svg" xmlns:xlink="http://www.w3.org/1999/xlink" x="0px" y="0px" viewBox="0 0 512 512" style="width: 32px; height: 32px; opacity: 1;" xml:space="preserve">
<style type="text/css">
	.st0{fill:#4B4B4B;}
</style>
<g>
	<path class="st0" d="M341.438,180.869l-48.764-48.744c-10.394-10.412-27.29-10.412-37.702,0L133.084,254.022
		c-10.412,10.411-10.412,27.299,0,37.702l48.744,48.753c10.412,10.412,27.29,10.403,37.702,0L341.438,218.58
		C351.831,208.168,351.849,191.28,341.438,180.869z M200.688,319.088l-46.206-46.215l119.35-119.351l46.206,46.206L200.688,319.088z
		" style="fill: rgb(185, 0, 0);"></path>
	<path class="st0" d="M238.836,75.21c-2.334-9.847-10.172-16.777-20.361-18.027L76.614,39.814
		c-4.576-0.564-9.301,0.066-13.802,1.724L21.274,0L0.95,20.323l41.537,41.538c-1.649,4.483-2.278,9.208-1.722,13.793l17.378,141.86
		c1.242,10.19,8.171,18.027,18.027,20.371c9.838,2.344,20.991-1.195,28.976-9.19l124.5-124.509
		C237.65,96.209,241.188,85.048,238.836,75.21z" style="fill: rgb(185, 0, 0);"></path>
	<path class="st0" d="M422.862,403.488c30.181-36.581,36.757-81.232,7.392-110.606c-32.31-32.301-85.594-23.668-123.796,14.526
		c-38.184,38.194-46.818,91.486-14.526,123.787c29.384,29.375,74.034,22.788,110.606-7.373L490.726,512l20.324-20.334
		L422.862,403.488z" style="fill: rgb(185, 0, 0);"></path>
</g>
</svg>
